<?xml version="1.0" encoding="UTF-8"?>
<svg width="16px" height="12px" viewBox="0 0 16 12" version="1.1" xmlns="http://www.w3.org/2000/svg" xmlns:xlink="http://www.w3.org/1999/xlink">
    <defs></defs>
    <g id="Page-1" stroke="none" stroke-width="1" fill="none" fill-rule="evenodd">
        <g id="Mobile" transform="translate(-280.000000, -24.000000)" fill-rule="nonzero" fill="#6DABA4">
            <g id="Intro">
                <g id="Nav-Panel" transform="translate(16.000000, 14.000781)">
                    <path d="M265,21.9992194 L279,21.9992194 C279.552285,21.9992194 280,21.5515041 280,20.9992194 C280,20.4469346 279.552285,19.9992194 279,19.9992194 L265,19.9992194 C264.447715,19.9992194 264,20.4469346 264,20.9992194 C264,21.5515041 264.447715,21.9992194 265,21.9992194 L265,21.9992194 Z M265,16.9992194 L279,16.9992194 C279.552285,16.9992194 280,16.5515041 280,15.9992194 C280,15.4469346 279.552285,14.9992194 279,14.9992194 L265,14.9992194 C264.447715,14.9992194 264,15.4469346 264,15.9992194 C264,16.5515041 264.447715,16.9992194 265,16.9992194 L265,16.9992194 Z M265,11.9992194 L279,11.9992194 C279.552285,11.9992194 280,11.5515041 280,10.9992194 C280,10.4469346 279.552285,9.99921936 279,9.99921936 L265,9.99921936 C264.447715,9.99921936 264,10.4469346 264,10.9992194 C264,11.5515041 264.447715,11.9992194 265,11.9992194 L265,11.9992194 Z" id="icon-menu"></path>
                </g>
            </g>
        </g>
    </g>
</svg>