<?xml version="1.0" encoding="UTF-8"?>
<svg width="70px" height="70px" viewBox="0 0 70 70" version="1.1" xmlns="http://www.w3.org/2000/svg" xmlns:xlink="http://www.w3.org/1999/xlink">
    <defs></defs>
    <g id="Page-1" stroke="none" stroke-width="1" fill="none" fill-rule="evenodd">
        <g id="Mobile" transform="translate(-148.000000, -1212.000000)" fill="#FFFFFF">
            <g id="2-Column-Boxes" transform="translate(0.000000, 681.000000)">
                <g id="Feature" transform="translate(16.000000, 508.000000)">
                    <g id="Icon" transform="translate(109.000000, 0.000000)">
                        <path d="M41.8133333,47 L26.88,47 C25.2305095,47 23.8933333,45.6568542 23.8933333,44 L23.8933333,32 C23.8933333,30.3431458 25.2305095,29 26.88,29 L28.3733333,29 C28.3733333,25.6862915 31.0476858,23 34.3466667,23 C37.6456476,23 40.32,25.6862915 40.32,29 L41.8133333,29 C43.4628238,29 44.8,30.3431458 44.8,32 L44.8,44 C44.8,45.6568542 43.4628238,47 41.8133333,47 L41.8133333,47 L41.8133333,47 Z M34.3466667,26 C32.6971762,26 31.36,27.3431458 31.36,29 L37.3333333,29 C37.3333333,27.3431458 35.9961571,26 34.3466667,26 L34.3466667,26 L34.3466667,26 Z M41.8133333,32 L26.88,32 L26.88,44 L41.8133333,44 L41.8133333,32 L41.8133333,32 L41.8133333,32 Z M34.3466667,35 C35.9961571,35 37.3333333,36.3431458 37.3333333,38 C37.3333333,39.6568542 35.9961571,41 34.3466667,41 C32.6971762,41 31.36,39.6568542 31.36,38 C31.36,36.3431458 32.6971762,35 34.3466667,35 L34.3466667,35 L34.3466667,35 Z" id="icon-lock"></path>
                    </g>
                </g>
            </g>
        </g>
    </g>
</svg>