<?xml version="1.0" encoding="UTF-8"?>
<svg width="24px" height="24px" viewBox="0 0 24 24" version="1.1" xmlns="http://www.w3.org/2000/svg" xmlns:xlink="http://www.w3.org/1999/xlink">
    <defs></defs>
    <g id="Page-1" stroke="none" stroke-width="1" fill="none" fill-rule="evenodd">
        <g id="Desktop" transform="translate(-486.000000, -1383.000000)" fill="#FFFFFF">
            <g id="2-Column-Boxes" transform="translate(78.000000, 1262.000000)">
                <g id="Feature" transform="translate(235.000000, 98.000000)">
                    <g id="Icon" transform="translate(150.000000, 0.000000)">
                        <path d="M35,47 C28.372583,47 23,41.627417 23,35 C23,28.372583 28.372583,23 35,23 C41.627417,23 47,28.372583 47,35 C47,41.627417 41.627417,47 35,47 L35,47 L35,47 L35,47 Z M35,26 C30.0294373,26 26,30.0294373 26,35 C26,39.9705627 30.0294373,44 35,44 C39.9705627,44 44,39.9705627 44,35 C44,30.0294373 39.9705627,26 35,26 L35,26 L35,26 L35,26 Z M41,36.5 L35,36.5 C34.1768164,36.5000333 33.5074087,35.8366502 33.5,35.0135 L33.5,28.9865 C33.5,28.1580729 34.1715729,27.4865 35,27.4865 C35.8284271,27.4865 36.5,28.1580729 36.5,28.9865 L36.5,33.5 L41,33.5 C41.8284271,33.5 42.5,34.1715729 42.5,35 C42.5,35.8284271 41.8284271,36.5 41,36.5 L41,36.5 L41,36.5 L41,36.5 Z" id="icon-clock"></path>
                    </g>
                </g>
            </g>
        </g>
    </g>
</svg>